<?xml version="1.0" encoding="utf-8"?>
<!-- Generator: Adobe Illustrator 15.0.0, SVG Export Plug-In . SVG Version: 6.00 Build 0)  -->
<!DOCTYPE svg PUBLIC "-//W3C//DTD SVG 1.1//EN" "http://www.w3.org/Graphics/SVG/1.1/DTD/svg11.dtd">
<svg version="1.1" id="Layer_1" xmlns="http://www.w3.org/2000/svg" xmlns:xlink="http://www.w3.org/1999/xlink" x="0px" y="0px"
	 width="85px" height="70px" viewBox="0 0 85 70" enable-background="new 0 0 85 70" xml:space="preserve">
<g>
	<path fill="none" stroke="#F9FFE3" stroke-width="3" stroke-miterlimit="10" d="M79.148,14.056c0,0-8.449-8.661-16.441-9.943
		c-8.689-1.394-20.331,1.742-16.5,19.628l4.412,23.05c0,0-1.898,4.07-5.564,4.952c-1.904,0.457-4.206-0.076-6.269-1.381
		c-0.575-0.362-5.407-0.545-5.278-3.954"/>
	<path opacity="0.5" fill="none" stroke="#F9FFE3" stroke-width="2" stroke-miterlimit="10" d="M18.367,30.474
		c-0.605-0.942-3.015-2.27-6.058-3.261c-3.248-1.055-6.137-1.379-7.002-0.839"/>
	<path opacity="0.5" fill="none" stroke="#F9FFE3" stroke-width="2" stroke-miterlimit="10" d="M58.965,30.474
		c0.604-0.942,3.014-2.27,6.059-3.261c3.246-1.055,6.135-1.379,7.002-0.839"/>
	<path fill="#F9FFE3" d="M61.613,16.798c-1.482,0-2.684-1.201-2.684-2.682c0-1.481,1.201-2.683,2.684-2.683
		c0.078,0,0.148,0.017,0.223,0.023c-0.779-0.683-1.797-1.101-2.916-1.101c-2.445,0-4.432,1.985-4.432,4.433s1.986,4.432,4.432,4.432
		c1.891,0,3.5-1.185,4.139-2.851C62.639,16.638,62.146,16.798,61.613,16.798z"/>
	<path fill="none" stroke="#F9FFE3" stroke-width="2" stroke-miterlimit="10" d="M68.66,16.396c0,0.924-4.311,5.172-9.625,5.172
		c-5.316,0-9.625-4.248-9.625-5.172c0-1.096,4.309-5.84,9.625-5.84C64.35,10.557,68.66,15.301,68.66,16.396z"/>
	<path fill="#F9FFE3" d="M20.878,16.798c-1.482,0-2.684-1.201-2.684-2.682c0-1.481,1.201-2.683,2.684-2.683
		c0.076,0,0.148,0.017,0.222,0.023c-0.778-0.683-1.797-1.101-2.915-1.101c-2.447,0-4.432,1.985-4.432,4.433s1.984,4.432,4.432,4.432
		c1.89,0,3.5-1.185,4.138-2.851C21.903,16.638,21.41,16.798,20.878,16.798z"/>
	<path fill="none" stroke="#F9FFE3" stroke-width="2" stroke-miterlimit="10" d="M27.924,16.396c0,0.924-4.31,5.172-9.625,5.172
		s-9.624-4.248-9.624-5.172c0-1.096,4.309-5.84,9.624-5.84S27.924,15.301,27.924,16.396z"/>
	<path fill="none" stroke="#F9FFE3" stroke-width="3" stroke-miterlimit="10" d="M61.643,56.205c0,1.78-10.287,9.975-22.975,9.975
		c-12.689,0-22.977-8.194-22.977-9.975"/>
</g>
</svg>
