<?xml version="1.0" encoding="utf-8"?>
<!-- Generator: Adobe Illustrator 15.0.0, SVG Export Plug-In . SVG Version: 6.00 Build 0)  -->
<!DOCTYPE svg PUBLIC "-//W3C//DTD SVG 1.1//EN" "http://www.w3.org/Graphics/SVG/1.1/DTD/svg11.dtd">
<svg version="1.1" id="Layer_1" xmlns="http://www.w3.org/2000/svg" xmlns:xlink="http://www.w3.org/1999/xlink" x="0px" y="0px"
	 width="130px" height="180px" viewBox="0 0 130 180" enable-background="new 0 0 130 180" xml:space="preserve">
<path fill="none" stroke="#F9FFE3" stroke-width="5" stroke-miterlimit="10" d="M14.231,75.844c0,8.281,2.199,12.875-2.148,12.875
	s-7.871-6.713-7.871-14.994c0-8.279,3.523-14.992,7.871-14.992S14.231,67.564,14.231,75.844z"/>
<path fill="none" stroke="#F9FFE3" stroke-width="5" stroke-miterlimit="10" d="M114.768,77.843c0,8.281-2.199,12.876,2.148,12.876
	s7.871-6.714,7.871-14.995c0-8.279-3.523-14.992-7.871-14.992S114.768,69.563,114.768,77.843z"/>
<path fill="none" stroke="#F9FFE3" stroke-width="3" stroke-miterlimit="10" d="M112.713,56.864c0,0-8.489-8.509-18.169-10.062
	c-10.529-1.688-24.633,2.111-19.99,23.777L79.9,98.502c0,0-2.299,4.93-6.74,5.998c-2.309,0.555-5.096-0.092-7.596-1.672
	c-0.695-0.439-6.549-0.66-6.393-4.791"/>
<path opacity="0.37" fill="none" stroke="#F9FFE3" stroke-miterlimit="10" d="M27.709,66.207c-0.317-0.168-1.201-0.163-2.209,0.035
	c-1.076,0.213-1.937,0.576-2.095,0.862"/>
<path opacity="0.37" fill="none" stroke="#F9FFE3" stroke-miterlimit="10" d="M24.718,56.847c0,0-0.238,4.334,1.623,5.27
	c0,0-2.982-1.274-4.257,0.766"/>
<path opacity="0.37" fill="none" stroke="#F9FFE3" stroke-miterlimit="10" d="M109.317,60.099c0,0-0.403,2.539-1.598,2.848
	c0,0,1.887-0.365,2.369,0.975"/>
<path opacity="0.37" fill="none" stroke="#F9FFE3" stroke-miterlimit="10" d="M107.931,64.607c0,0,2.709,1.79,1.669,2.42"/>
<ellipse fill="none" stroke="#F9FFE3" stroke-width="5" stroke-miterlimit="10" cx="65.42" cy="73.378" rx="50.199" ry="67.723"/>
<path fill="#F9FFE3" stroke="#F9FFE3" stroke-width="5" stroke-miterlimit="10" d="M112.777,99.83
	c0,37.666-40.559,74.702-47.293,74.702c-6.265,0-47.292-37.036-47.292-74.702c0-8.217,21.174,36.868,47.293,36.868
	S112.777,91.613,112.777,99.83z"/>
<g>
	<path fill="#F9FFE3" stroke="#F9FFE3" stroke-width="5" stroke-miterlimit="10" d="M67.333,112.848
		c4.529,4.344,18.189,8.561,30.539,4.74c12.352-3.82,23.219-18.57,23.219-18.57s-19.043,3.096-31.395,6.916
		C77.346,109.752,62.803,108.506,67.333,112.848z"/>
	<path fill="#F9FFE3" stroke="#F9FFE3" stroke-width="5" stroke-miterlimit="10" d="M64.54,112.848
		c-4.529,4.344-18.189,8.561-30.539,4.74c-12.352-3.82-23.988-18.57-23.988-18.57s19.814,3.096,32.164,6.916
		C54.528,109.752,69.071,108.506,64.54,112.848z"/>
</g>
<path fill="#F9FFE3" d="M72.494,128.872c0.311,1,0.311,0.709,0,1.021l-6.764,6.711c-0.312,0.312-0.816,0.285-1.127-0.027
	l-6.764-6.671c-0.312-0.312-0.312-0.034,0-1.034H72.494z"/>
<path fill="none" stroke="#F9FFE3" stroke-width="2" stroke-miterlimit="10" d="M54.045,60.871c0,0.816-2.545,0.854-2.816,1.598
	c-1.232,3.398-5.068,5.875-9.613,5.875c-4.848,0.002-8.891-2.818-9.824-6.566c-0.135-0.537-1.861-1.09-1.861-1.658"/>
<path fill="none" stroke="#F9FFE3" stroke-width="2" stroke-miterlimit="10" d="M104.045,61.871c0,0.816-2.545,0.854-2.816,1.598
	c-1.232,3.398-5.068,5.875-9.613,5.875c-4.848,0.002-8.891-2.818-9.824-6.566c-0.135-0.537-1.861-1.09-1.861-1.658"/>
<g>
	<path opacity="0.5" fill="none" stroke="#F9FFE3" stroke-width="2" stroke-miterlimit="10" d="M40.83,78.736
		c-0.732-1.141-3.652-2.748-7.338-3.949c-3.934-1.279-7.434-1.672-8.482-1.018"/>
	<path opacity="0.5" fill="none" stroke="#F9FFE3" stroke-width="2" stroke-miterlimit="10" d="M90.009,78.736
		c0.732-1.141,3.652-2.748,7.34-3.949c3.932-1.279,7.432-1.672,8.482-1.018"/>
</g>
<g>
	<path fill="#F9FFE3" d="M69.251,34.295c-2.201,0-3.986-1.785-3.986-3.985c0-2.2,1.785-3.985,3.986-3.985
		c0.113,0,0.221,0.024,0.332,0.034c-1.158-1.014-2.671-1.634-4.332-1.634c-3.638,0-6.586,2.948-6.586,6.585
		c0,3.637,2.948,6.585,6.586,6.585c2.809,0,5.199-1.761,6.146-4.236C70.777,34.058,70.043,34.295,69.251,34.295z"/>
	<path fill="none" stroke="#F9FFE3" stroke-width="3" stroke-miterlimit="10" d="M79.721,33.7c0,1.372-6.402,7.683-14.3,7.683
		c-7.898,0-14.301-6.311-14.301-7.683c0-1.628,6.402-8.679,14.301-8.679C73.319,25.021,79.721,32.072,79.721,33.7z"/>
</g>
<path fill="none" stroke="#F9FFE3" stroke-width="3" stroke-miterlimit="10" d="M93.253,107.701
	c0,2.864-12.461,16.048-27.831,16.048c-15.373,0-27.834-13.184-27.834-16.048"/>
</svg>
